<svg width="518" height="137" viewBox="0 0 518 137" fill="none" xmlns="http://www.w3.org/2000/svg">
<g clip-path="url(#clip0_96_21)">
<path d="M101.969 124.312C101.415 124.149 101.017 123.799 100.772 123.262C100.593 122.92 100.504 122.489 100.504 121.968C100.504 121.154 100.715 120.112 101.139 118.843C101.301 118.322 101.537 117.703 101.847 116.987C102.156 116.255 102.441 115.62 102.701 115.083C102.783 114.92 102.84 114.798 102.872 114.717C102.905 114.619 102.921 114.554 102.921 114.521C102.905 114.521 102.652 114.709 102.164 115.083C101.692 115.441 101.106 115.881 100.406 116.401C99.4622 117.134 98.738 117.695 98.2334 118.086C97.7288 118.46 97.3382 118.745 97.0615 118.94C96.8011 119.119 96.5732 119.274 96.3779 119.404C95.6943 119.811 95.1003 120.015 94.5957 120.015C93.9772 120.015 93.4889 119.705 93.1309 119.087C93.0169 118.843 92.96 118.55 92.96 118.208C92.96 117.541 93.1878 116.702 93.6436 115.693C94.3271 114.212 95.2956 112.796 96.5488 111.445C97.9974 109.964 99.153 109.118 100.016 108.906C100.895 108.695 101.505 108.589 101.847 108.589C102.758 108.589 103.556 108.914 104.239 109.565L104.703 110.005L105.216 109.688C105.851 109.281 106.355 109.077 106.729 109.077C106.795 109.077 106.86 109.085 106.925 109.102C107.299 109.183 107.576 109.362 107.755 109.639C107.95 109.915 108.048 110.192 108.048 110.469C108.048 110.55 108.04 110.64 108.023 110.737C107.991 110.851 107.869 111.112 107.657 111.519C107.446 111.925 107.185 112.381 106.876 112.886C105.558 115.067 104.573 116.995 103.922 118.672C103.71 119.193 103.515 119.746 103.336 120.332C103.157 120.918 103.067 121.276 103.067 121.406C103.067 121.439 103.092 121.455 103.141 121.455C103.271 121.455 103.564 121.268 104.02 120.894C104.605 120.373 105.346 119.681 106.241 118.818C107.136 117.939 108.032 117.052 108.927 116.157C109.692 115.409 110.359 114.757 110.929 114.204C111.498 113.634 111.897 113.26 112.125 113.081C112.434 112.869 112.719 112.764 112.979 112.764C113.126 112.764 113.264 112.796 113.395 112.861C113.671 113.008 113.81 113.276 113.81 113.667C113.81 113.765 113.801 113.87 113.785 113.984C113.769 114.098 113.712 114.229 113.614 114.375C113.533 114.521 113.354 114.749 113.077 115.059C112.817 115.352 112.418 115.791 111.881 116.377C109.618 118.883 107.901 120.69 106.729 121.797C105.558 122.904 104.589 123.628 103.824 123.97C103.271 124.23 102.791 124.36 102.384 124.36C102.237 124.36 102.099 124.344 101.969 124.312ZM99.3564 114.033C100.219 113.366 100.951 112.804 101.554 112.349C102.156 111.877 102.481 111.624 102.53 111.592C102.547 111.576 102.555 111.559 102.555 111.543C102.555 111.51 102.53 111.47 102.481 111.421C102.416 111.34 102.327 111.266 102.213 111.201C102.099 111.136 101.993 111.104 101.896 111.104C101.407 111.104 100.797 111.34 100.064 111.812C99.332 112.267 98.6566 112.845 98.0381 113.545C97.8428 113.773 97.6312 114.041 97.4033 114.351C97.1755 114.66 96.9639 114.969 96.7686 115.278C96.5732 115.588 96.4186 115.832 96.3047 116.011C96.207 116.19 96.1582 116.304 96.1582 116.353C96.1582 116.369 96.1663 116.377 96.1826 116.377C96.1989 116.377 96.5081 116.157 97.1104 115.718C97.7288 115.262 98.4775 114.701 99.3564 114.033ZM130.143 124.458C129.703 124.279 129.353 123.921 129.093 123.384C128.979 123.205 128.906 123.018 128.873 122.822C128.84 122.611 128.816 122.301 128.8 121.895V120.991C128.816 120.682 128.84 120.43 128.873 120.234C129.199 118.346 130.053 115.962 131.437 113.081C131.648 112.625 131.827 112.243 131.974 111.934C132.12 111.608 132.193 111.437 132.193 111.421L131.485 112.104C131.013 112.56 130.427 113.13 129.728 113.813C127.612 115.913 125.919 117.451 124.649 118.428C123.396 119.388 122.428 119.909 121.744 119.99H121.549C121.077 119.99 120.662 119.827 120.304 119.502C119.913 119.111 119.701 118.615 119.669 118.013C119.669 117.769 119.742 117.394 119.889 116.89C120.035 116.369 120.206 115.905 120.401 115.498C121.101 114.017 122.005 112.674 123.111 111.47C124.218 110.265 125.366 109.386 126.554 108.833C127.384 108.459 128.157 108.271 128.873 108.271C129.426 108.271 129.939 108.385 130.411 108.613C130.558 108.678 130.688 108.743 130.802 108.809C130.916 108.857 130.981 108.882 130.997 108.882C131.03 108.882 131.371 108.548 132.022 107.881C132.69 107.197 133.487 106.375 134.415 105.415C135.359 104.438 136.295 103.462 137.223 102.485C138.15 101.509 138.924 100.687 139.542 100.02C139.591 99.9707 139.64 99.9137 139.688 99.8486C140.274 99.2139 140.738 98.7174 141.08 98.3594C141.422 98.0013 141.674 97.7409 141.837 97.5781C142 97.4154 142.122 97.3096 142.203 97.2607C142.301 97.2119 142.407 97.1712 142.521 97.1387C142.634 97.1224 142.74 97.1143 142.838 97.1143C143.18 97.1143 143.473 97.2282 143.717 97.4561C143.977 97.7002 144.107 98.0013 144.107 98.3594C144.107 98.4408 144.099 98.5221 144.083 98.6035C144.067 98.6686 144.034 98.7419 143.985 98.8232C143.953 98.9046 143.88 99.0186 143.766 99.165C143.668 99.2952 143.505 99.4987 143.277 99.7754C143.049 100.052 142.74 100.418 142.35 100.874C141.487 101.916 140.527 103.177 139.469 104.658C138.411 106.123 137.442 107.572 136.563 109.004C135.034 111.494 133.78 113.895 132.804 116.206C131.843 118.517 131.347 120.283 131.314 121.504C131.314 121.602 131.323 121.691 131.339 121.772C131.355 121.838 131.371 121.87 131.388 121.87C131.485 121.854 131.778 121.65 132.267 121.26C132.755 120.853 133.3 120.381 133.902 119.844C136.067 117.842 138.15 115.775 140.152 113.643C140.25 113.529 140.348 113.423 140.445 113.325C141.585 112.17 142.317 111.567 142.643 111.519C142.968 111.453 143.18 111.421 143.277 111.421C143.635 111.421 143.814 111.616 143.814 112.007C143.798 112.511 143.513 113.089 142.96 113.74C142.732 114.001 142.366 114.416 141.861 114.985C141.373 115.555 140.86 116.149 140.323 116.768C136.466 121.178 133.658 123.742 131.9 124.458C131.624 124.556 131.323 124.604 130.997 124.604C130.655 124.604 130.37 124.556 130.143 124.458ZM123.551 116.06C123.86 115.815 124.308 115.425 124.894 114.888C125.496 114.351 126.114 113.789 126.749 113.203C127.384 112.601 127.929 112.08 128.385 111.641C128.84 111.185 129.068 110.933 129.068 110.884C129.068 110.835 129.011 110.811 128.897 110.811C128.849 110.811 128.784 110.819 128.702 110.835C128.458 110.868 128.198 110.933 127.921 111.03C127.091 111.34 126.212 111.958 125.284 112.886C124.373 113.813 123.624 114.831 123.038 115.938C123.022 115.97 123.006 116.011 122.989 116.06C122.81 116.369 122.721 116.556 122.721 116.621C122.721 116.637 122.729 116.646 122.745 116.646C122.81 116.646 123.03 116.483 123.404 116.157L123.551 116.06ZM139.225 116.133C139.599 114.521 140.226 113.016 141.104 111.616C142 110.2 142.993 109.126 144.083 108.394C144.913 107.889 145.719 107.637 146.5 107.637C146.663 107.637 146.826 107.645 146.988 107.661C147.932 107.791 148.632 108.271 149.088 109.102C149.251 109.476 149.332 109.867 149.332 110.273C149.332 111.396 148.689 112.625 147.403 113.96C146.085 115.327 144.856 116.011 143.717 116.011C143.44 116.011 143.172 115.97 142.911 115.889C142.732 115.84 142.569 115.799 142.423 115.767C142.276 115.718 142.179 115.693 142.13 115.693C142 115.71 141.886 115.962 141.788 116.45C141.69 116.922 141.633 117.467 141.617 118.086V118.33C141.617 119.242 141.796 119.803 142.154 120.015C142.252 120.08 142.374 120.112 142.521 120.112C142.911 120.112 143.448 119.901 144.132 119.478C145.646 118.566 146.98 117.63 148.136 116.67C149.291 115.693 150.471 114.611 151.676 113.423C152.294 112.853 152.815 112.568 153.238 112.568H153.263C153.686 112.585 153.906 112.707 153.922 112.935L153.946 113.252C153.946 113.675 153.661 114.196 153.092 114.814C152.88 115.042 152.571 115.368 152.164 115.791C151.773 116.198 151.383 116.605 150.992 117.012C148.697 119.421 146.565 121.121 144.596 122.114C143.782 122.489 143.049 122.676 142.398 122.676C141.926 122.676 141.503 122.578 141.129 122.383C140.217 121.911 139.64 121.243 139.396 120.381C139.135 119.502 139.005 118.721 139.005 118.037C139.005 117.435 139.078 116.8 139.225 116.133ZM144.4 113.179C144.742 112.983 145.141 112.65 145.597 112.178C146.052 111.689 146.378 111.266 146.573 110.908C146.703 110.648 146.769 110.461 146.769 110.347V110.322C146.752 110.208 146.646 110.151 146.451 110.151C145.995 110.151 145.385 110.526 144.62 111.274C144.392 111.502 144.156 111.763 143.912 112.056C143.684 112.349 143.497 112.601 143.351 112.812C143.204 113.024 143.131 113.162 143.131 113.228V113.252L143.229 113.276C143.277 113.309 143.334 113.341 143.399 113.374C143.497 113.407 143.603 113.423 143.717 113.423H143.814C143.945 113.39 144.14 113.309 144.4 113.179ZM147.843 126.704C146.866 126.297 146.378 125.638 146.378 124.727C146.378 124.417 146.435 124.084 146.549 123.726C147.005 122.228 149.088 120.169 152.799 117.549C152.799 117.533 152.766 117.427 152.701 117.231C152.636 117.02 152.555 116.759 152.457 116.45C152.164 115.653 152.018 114.88 152.018 114.131C152.018 112.682 152.555 111.307 153.629 110.005C154.247 109.24 154.907 108.605 155.606 108.101C156.306 107.58 156.876 107.319 157.315 107.319C157.999 107.319 158.447 107.531 158.658 107.954C158.886 108.361 159 108.743 159 109.102C159 109.427 158.935 109.777 158.805 110.151C158.642 110.64 158.438 110.933 158.194 111.03C157.95 111.112 157.763 111.152 157.633 111.152C157.389 111.152 157.128 111.063 156.852 110.884L156.485 110.615L156.021 111.128C155.061 112.121 154.581 113.073 154.581 113.984C154.581 114.098 154.589 114.212 154.605 114.326C154.605 114.521 154.63 114.733 154.679 114.961C154.728 115.173 154.776 115.352 154.825 115.498L154.972 116.011L155.46 115.693C158.08 114.017 159.806 113.073 160.636 112.861C161.271 112.666 161.816 112.568 162.271 112.568C162.467 112.568 162.646 112.585 162.809 112.617C163.248 112.715 163.468 112.902 163.468 113.179C163.468 113.26 163.451 113.341 163.419 113.423C163.272 113.813 162.605 114.269 161.417 114.79C160.099 115.376 158.821 116.117 157.584 117.012C157.421 117.126 157.258 117.231 157.096 117.329C156.705 117.59 156.428 117.809 156.266 117.988C156.103 118.151 156.013 118.298 155.997 118.428C155.997 118.542 155.997 118.639 155.997 118.721C155.997 118.883 156.005 119.071 156.021 119.282C156.038 119.429 156.054 119.6 156.07 119.795C156.087 119.941 156.095 120.088 156.095 120.234C156.095 121.455 155.72 122.586 154.972 123.628C154.125 124.8 152.937 125.703 151.407 126.338C150.496 126.696 149.682 126.875 148.966 126.875C148.559 126.875 148.185 126.818 147.843 126.704ZM150.016 124.116C150.569 123.97 151.131 123.701 151.7 123.311C152.254 122.904 152.693 122.456 153.019 121.968C153.198 121.691 153.336 121.398 153.434 121.089C153.531 120.78 153.58 120.552 153.58 120.405C153.58 120.34 153.572 120.283 153.556 120.234H153.531C153.499 120.234 153.336 120.332 153.043 120.527C152.734 120.739 152.359 121.024 151.92 121.382C151.48 121.74 151.065 122.098 150.675 122.456C150.431 122.684 150.187 122.928 149.942 123.188C149.698 123.449 149.495 123.685 149.332 123.896C149.169 124.092 149.088 124.222 149.088 124.287C149.088 124.303 149.112 124.312 149.161 124.312C149.21 124.312 149.308 124.295 149.454 124.263C149.584 124.23 149.771 124.181 150.016 124.116ZM166.91 104.927C166.52 104.683 166.316 104.447 166.3 104.219C166.284 103.991 166.275 103.853 166.275 103.804C166.275 103.478 166.381 103.177 166.593 102.9C166.853 102.575 167.219 102.412 167.691 102.412C168.261 102.412 168.619 102.575 168.766 102.9C168.928 103.226 169.01 103.486 169.01 103.682C169.01 103.958 168.904 104.243 168.692 104.536C168.351 104.91 167.984 105.098 167.594 105.098C167.366 105.098 167.138 105.041 166.91 104.927ZM159.171 119.844C159.106 119.518 159.073 119.168 159.073 118.794C159.073 117.72 159.374 116.426 159.977 114.912C160.562 113.561 161.279 112.259 162.125 111.006C162.988 109.753 163.679 108.979 164.2 108.687C164.428 108.589 164.648 108.54 164.859 108.54C165.087 108.54 165.291 108.597 165.47 108.711C165.844 108.955 166.031 109.329 166.031 109.834C166.031 109.98 166.015 110.103 165.982 110.2C165.966 110.282 165.909 110.379 165.812 110.493C165.73 110.607 165.592 110.77 165.396 110.981C164.452 112.039 163.614 113.285 162.882 114.717C162.166 116.149 161.759 117.37 161.661 118.379C161.645 118.558 161.637 118.704 161.637 118.818C161.637 119.014 161.661 119.128 161.71 119.16H161.759C161.889 119.16 162.149 119.054 162.54 118.843C165.925 117.069 168.644 115.075 170.694 112.861C171.118 112.454 171.476 112.251 171.769 112.251C171.882 112.251 171.988 112.284 172.086 112.349C172.346 112.511 172.477 112.764 172.477 113.105C172.477 113.219 172.46 113.35 172.428 113.496C172.298 113.838 171.939 114.326 171.354 114.961C170.768 115.596 170.141 116.214 169.474 116.816C168.823 117.419 168.351 117.842 168.058 118.086C166.479 119.372 165.063 120.365 163.81 121.064C163.045 121.488 162.271 121.699 161.49 121.699C161.36 121.699 161.23 121.691 161.1 121.675C160.188 121.577 159.545 120.967 159.171 119.844ZM163.346 135.176C162.451 134.72 162.003 133.996 162.003 133.003C162.003 132.531 162.109 131.994 162.32 131.392C162.597 130.675 163.134 129.837 163.932 128.877C164.729 127.917 165.657 126.989 166.715 126.094C167.431 125.508 168.725 124.515 170.597 123.115C172.468 121.699 174.243 120.389 175.919 119.185L177.433 118.11L178.092 116.597C178.303 116.092 178.523 115.555 178.751 114.985C178.979 114.399 179.158 113.903 179.288 113.496C179.435 113.089 179.508 112.853 179.508 112.788V112.764C179.492 112.764 179.312 112.918 178.971 113.228C178.629 113.521 178.214 113.895 177.726 114.351C175.479 116.434 173.762 117.899 172.574 118.745C171.402 119.575 170.491 119.99 169.84 119.99C169.059 119.99 168.57 119.746 168.375 119.258C168.163 118.77 168.058 118.322 168.058 117.915C168.058 117.459 168.147 116.947 168.326 116.377C168.928 114.652 169.946 113.057 171.378 111.592C172.631 110.371 173.64 109.671 174.405 109.492C175.17 109.297 175.699 109.199 175.992 109.199C176.773 109.199 177.424 109.468 177.945 110.005L178.287 110.347L178.971 109.81C179.654 109.305 180.24 109.053 180.729 109.053C180.859 109.053 180.981 109.069 181.095 109.102C181.941 109.329 182.364 109.997 182.364 111.104C182.364 111.641 182.267 112.284 182.071 113.032C181.99 113.358 181.9 113.675 181.803 113.984C181.721 114.294 181.648 114.53 181.583 114.692C181.55 114.79 181.502 114.928 181.437 115.107C181.371 115.27 181.314 115.425 181.266 115.571C181.217 115.718 181.192 115.799 181.192 115.815C181.209 115.815 181.355 115.734 181.632 115.571C182.218 115.246 183.023 114.814 184.049 114.277C185.074 113.74 185.945 113.325 186.661 113.032C186.987 112.935 187.263 112.886 187.491 112.886C187.882 112.886 188.159 113.016 188.321 113.276C188.386 113.374 188.419 113.48 188.419 113.594C188.419 113.952 188.085 114.359 187.418 114.814C187.223 114.928 186.938 115.099 186.563 115.327C185.799 115.767 184.887 116.304 183.829 116.938C182.787 117.557 181.868 118.135 181.07 118.672L179.459 119.819L179.093 120.552C177.4 123.905 175.447 126.916 173.233 129.585C172.127 130.903 170.906 132.067 169.571 133.076C168.237 134.102 167 134.81 165.86 135.2C165.405 135.347 164.973 135.42 164.566 135.42C164.127 135.42 163.72 135.339 163.346 135.176ZM171.451 116.426C172.151 115.872 173.176 115.002 174.527 113.813C174.869 113.504 175.13 113.26 175.309 113.081C175.504 112.902 175.642 112.764 175.724 112.666C175.821 112.568 175.878 112.487 175.895 112.422C175.911 112.34 175.919 112.251 175.919 112.153C175.919 112.007 175.911 111.909 175.895 111.86C175.895 111.795 175.87 111.763 175.821 111.763C175.789 111.763 175.732 111.771 175.65 111.787C175.178 111.901 174.666 112.161 174.112 112.568C173.559 112.975 173.054 113.464 172.599 114.033C172.322 114.359 172.045 114.733 171.769 115.156C171.508 115.563 171.305 115.905 171.158 116.182C171.012 116.442 170.938 116.605 170.938 116.67C170.938 116.702 170.955 116.719 170.987 116.719C171.004 116.719 171.052 116.694 171.134 116.646C171.231 116.58 171.337 116.507 171.451 116.426ZM165.812 132.466C168.481 131.131 171.109 128.56 173.697 124.751C173.925 124.409 174.12 124.108 174.283 123.848C174.462 123.587 174.568 123.433 174.601 123.384C174.568 123.384 174.47 123.441 174.308 123.555C174.096 123.685 173.827 123.872 173.502 124.116C173.128 124.393 172.696 124.718 172.208 125.093C171.834 125.353 171.508 125.589 171.231 125.801C167.748 128.372 165.616 130.456 164.835 132.051C164.656 132.393 164.575 132.612 164.591 132.71C164.591 132.808 164.64 132.856 164.737 132.856C164.77 132.856 164.819 132.848 164.884 132.832C164.981 132.799 165.12 132.751 165.299 132.686C165.462 132.62 165.632 132.547 165.812 132.466ZM193.937 124.214C192.895 123.888 192.374 123.034 192.374 121.65C192.374 121.423 192.39 121.17 192.423 120.894C192.521 119.657 193.147 117.573 194.303 114.644C194.498 114.172 194.645 113.781 194.742 113.472C194.856 113.162 194.913 112.983 194.913 112.935V112.91H194.889C194.84 112.91 194.701 112.975 194.474 113.105C194.197 113.252 193.871 113.447 193.497 113.691C193.139 113.919 192.781 114.155 192.423 114.399C191.218 115.246 189.851 116.41 188.321 117.891L187.467 118.745C186.946 119.266 186.563 119.616 186.319 119.795C186.075 119.958 185.855 120.039 185.66 120.039C185.546 120.039 185.44 120.023 185.343 119.99C184.822 119.844 184.562 119.453 184.562 118.818V118.696C184.627 118.241 185.034 117.166 185.782 115.474C186.515 113.781 187.304 112.104 188.15 110.444C188.997 108.768 189.599 107.734 189.957 107.344C190.12 107.214 190.25 107.124 190.348 107.075C190.462 107.026 190.6 107.002 190.763 107.002C191.137 107.002 191.454 107.132 191.715 107.393C191.975 107.653 192.105 107.962 192.105 108.32C192.105 108.385 192.065 108.524 191.983 108.735C191.902 108.947 191.796 109.175 191.666 109.419C191.536 109.679 191.349 110.029 191.104 110.469C190.877 110.908 190.649 111.348 190.421 111.787L189.64 113.276L190.372 112.739C192.016 111.535 193.44 110.688 194.645 110.2C195.149 110.005 195.605 109.907 196.012 109.907C196.467 109.907 196.866 110.029 197.208 110.273C197.631 110.566 197.843 111.038 197.843 111.689C197.843 111.999 197.794 112.34 197.696 112.715C197.55 113.285 197.257 114.131 196.817 115.254C195.58 118.428 194.962 120.413 194.962 121.211V121.333L194.986 121.602L195.621 121.138C196.695 120.34 197.713 119.461 198.673 118.501C199.649 117.524 200.602 116.532 201.529 115.522C202.083 114.937 202.628 114.359 203.165 113.789C203.604 113.366 203.987 113.154 204.312 113.154C204.378 113.154 204.435 113.162 204.483 113.179C204.858 113.244 205.069 113.398 205.118 113.643C205.167 113.87 205.191 114.025 205.191 114.106C205.191 114.416 205.061 114.741 204.801 115.083C204.622 115.295 203.995 115.994 202.921 117.183C202.351 117.817 201.773 118.46 201.188 119.111C200.618 119.746 200.17 120.251 199.845 120.625C197.631 123.066 195.833 124.287 194.449 124.287C194.27 124.287 194.099 124.263 193.937 124.214ZM209.122 126.704C208.146 126.297 207.657 125.638 207.657 124.727C207.657 124.417 207.714 124.084 207.828 123.726C208.284 122.228 210.367 120.169 214.078 117.549C214.078 117.533 214.046 117.427 213.98 117.231C213.915 117.02 213.834 116.759 213.736 116.45C213.443 115.653 213.297 114.88 213.297 114.131C213.297 112.682 213.834 111.307 214.908 110.005C215.527 109.24 216.186 108.605 216.886 108.101C217.586 107.58 218.155 107.319 218.595 107.319C219.278 107.319 219.726 107.531 219.938 107.954C220.165 108.361 220.279 108.743 220.279 109.102C220.279 109.427 220.214 109.777 220.084 110.151C219.921 110.64 219.718 110.933 219.474 111.03C219.229 111.112 219.042 111.152 218.912 111.152C218.668 111.152 218.408 111.063 218.131 110.884L217.765 110.615L217.301 111.128C216.34 112.121 215.86 113.073 215.86 113.984C215.86 114.098 215.868 114.212 215.885 114.326C215.885 114.521 215.909 114.733 215.958 114.961C216.007 115.173 216.056 115.352 216.104 115.498L216.251 116.011L216.739 115.693C219.36 114.017 221.085 113.073 221.915 112.861C222.55 112.666 223.095 112.568 223.551 112.568C223.746 112.568 223.925 112.585 224.088 112.617C224.527 112.715 224.747 112.902 224.747 113.179C224.747 113.26 224.731 113.341 224.698 113.423C224.552 113.813 223.884 114.269 222.696 114.79C221.378 115.376 220.1 116.117 218.863 117.012C218.701 117.126 218.538 117.231 218.375 117.329C217.984 117.59 217.708 117.809 217.545 117.988C217.382 118.151 217.293 118.298 217.276 118.428C217.276 118.542 217.276 118.639 217.276 118.721C217.276 118.883 217.285 119.071 217.301 119.282C217.317 119.429 217.333 119.6 217.35 119.795C217.366 119.941 217.374 120.088 217.374 120.234C217.374 121.455 217 122.586 216.251 123.628C215.405 124.8 214.216 125.703 212.687 126.338C211.775 126.696 210.961 126.875 210.245 126.875C209.838 126.875 209.464 126.818 209.122 126.704ZM211.295 124.116C211.848 123.97 212.41 123.701 212.979 123.311C213.533 122.904 213.972 122.456 214.298 121.968C214.477 121.691 214.615 121.398 214.713 121.089C214.811 120.78 214.859 120.552 214.859 120.405C214.859 120.34 214.851 120.283 214.835 120.234H214.811C214.778 120.234 214.615 120.332 214.322 120.527C214.013 120.739 213.639 121.024 213.199 121.382C212.76 121.74 212.345 122.098 211.954 122.456C211.71 122.684 211.466 122.928 211.222 123.188C210.978 123.449 210.774 123.685 210.611 123.896C210.449 124.092 210.367 124.222 210.367 124.287C210.367 124.303 210.392 124.312 210.44 124.312C210.489 124.312 210.587 124.295 210.733 124.263C210.864 124.23 211.051 124.181 211.295 124.116ZM216.642 135.566C215.86 135.16 215.47 134.557 215.47 133.76C215.47 133.304 215.6 132.783 215.86 132.197C216.479 130.863 218.001 129.129 220.426 126.997C222.835 124.849 226.326 122.139 230.899 118.867L232.34 117.842L232.682 116.792C232.779 116.483 232.877 116.174 232.975 115.864C233.072 115.555 233.137 115.311 233.17 115.132C233.219 114.904 233.251 114.676 233.268 114.448C233.3 114.22 233.316 114.017 233.316 113.838C233.316 113.675 233.292 113.594 233.243 113.594C233.162 113.594 232.787 113.83 232.12 114.302C231.453 114.757 230.615 115.36 229.605 116.108C227.848 117.427 226.489 118.371 225.528 118.94C224.584 119.51 223.811 119.852 223.209 119.966C223.03 119.998 222.851 120.015 222.672 120.015C221.874 120.015 221.28 119.657 220.89 118.94C220.743 118.68 220.67 118.428 220.67 118.184C220.67 117.939 220.67 117.793 220.67 117.744C220.67 117.354 220.727 116.963 220.841 116.572C221.345 114.993 222.452 112.878 224.161 110.225C224.698 109.411 225.113 108.841 225.406 108.516C225.715 108.19 226 107.995 226.261 107.93C226.391 107.897 226.505 107.881 226.603 107.881H226.676C226.79 107.881 226.928 107.93 227.091 108.027C227.351 108.141 227.53 108.296 227.628 108.491C227.742 108.67 227.815 108.971 227.848 109.395C227.864 109.59 227.872 109.753 227.872 109.883V110.054C227.856 110.216 227.815 110.371 227.75 110.518C227.652 110.729 227.506 110.908 227.311 111.055C227.115 111.185 226.912 111.25 226.7 111.25C226.603 111.25 226.367 111.543 225.992 112.129C225.618 112.699 225.219 113.366 224.796 114.131C224.373 114.88 224.031 115.539 223.771 116.108C223.51 116.662 223.38 117.004 223.38 117.134V117.183H223.404C223.714 117.183 225.309 116.117 228.189 113.984C228.775 113.545 229.321 113.146 229.825 112.788C230.33 112.414 230.672 112.161 230.851 112.031C231.925 111.315 232.853 110.957 233.634 110.957C234.187 110.957 234.659 111.128 235.05 111.47C235.619 111.974 235.904 112.756 235.904 113.813C235.904 114.041 235.888 114.277 235.855 114.521C235.855 114.587 235.847 114.644 235.831 114.692C235.815 114.855 235.799 115.018 235.782 115.181C235.766 115.343 235.75 115.465 235.733 115.547C235.733 115.628 235.733 115.685 235.733 115.718V115.791C235.75 115.775 235.953 115.636 236.344 115.376C236.734 115.099 237.223 114.757 237.809 114.351C238.622 113.781 239.282 113.333 239.786 113.008C240.323 112.699 240.787 112.544 241.178 112.544C241.275 112.544 241.373 112.552 241.471 112.568C241.91 112.682 242.13 112.935 242.13 113.325V113.398C242.097 113.822 241.682 114.326 240.885 114.912C240.592 115.124 240.095 115.474 239.396 115.962C238.696 116.45 237.955 116.971 237.174 117.524L234.415 119.478L234.049 120.332C233.626 121.309 233.08 122.383 232.413 123.555C231.762 124.71 231.111 125.76 230.46 126.704C228.767 129.032 227.001 130.952 225.162 132.466C223.453 133.8 221.988 134.688 220.768 135.127C219.547 135.583 218.587 135.811 217.887 135.811C217.415 135.811 217 135.729 216.642 135.566ZM219.474 132.881C222.501 131.693 225.406 129.227 228.189 125.483C228.417 125.158 228.661 124.8 228.922 124.409C229.199 124.002 229.426 123.644 229.605 123.335C229.785 123.026 229.874 122.855 229.874 122.822C229.809 122.839 229.369 123.148 228.556 123.75C227.742 124.352 226.806 125.068 225.748 125.898C224.706 126.712 223.787 127.445 222.989 128.096C221.964 128.975 220.995 129.894 220.084 130.854C219.156 131.815 218.546 132.555 218.253 133.076C218.22 133.125 218.204 133.158 218.204 133.174C218.204 133.19 218.212 133.198 218.229 133.198H218.473C218.57 133.166 218.717 133.117 218.912 133.052C219.091 133.003 219.278 132.946 219.474 132.881ZM236.026 126.704C235.05 126.297 234.562 125.638 234.562 124.727C234.562 124.417 234.618 124.084 234.732 123.726C235.188 122.228 237.271 120.169 240.982 117.549C240.982 117.533 240.95 117.427 240.885 117.231C240.82 117.02 240.738 116.759 240.641 116.45C240.348 115.653 240.201 114.88 240.201 114.131C240.201 112.682 240.738 111.307 241.812 110.005C242.431 109.24 243.09 108.605 243.79 108.101C244.49 107.58 245.06 107.319 245.499 107.319C246.183 107.319 246.63 107.531 246.842 107.954C247.07 108.361 247.184 108.743 247.184 109.102C247.184 109.427 247.118 109.777 246.988 110.151C246.826 110.64 246.622 110.933 246.378 111.03C246.134 111.112 245.947 111.152 245.816 111.152C245.572 111.152 245.312 111.063 245.035 110.884L244.669 110.615L244.205 111.128C243.245 112.121 242.765 113.073 242.765 113.984C242.765 114.098 242.773 114.212 242.789 114.326C242.789 114.521 242.813 114.733 242.862 114.961C242.911 115.173 242.96 115.352 243.009 115.498L243.155 116.011L243.644 115.693C246.264 114.017 247.989 113.073 248.819 112.861C249.454 112.666 249.999 112.568 250.455 112.568C250.65 112.568 250.829 112.585 250.992 112.617C251.432 112.715 251.651 112.902 251.651 113.179C251.651 113.26 251.635 113.341 251.603 113.423C251.456 113.813 250.789 114.269 249.601 114.79C248.282 115.376 247.005 116.117 245.768 117.012C245.605 117.126 245.442 117.231 245.279 117.329C244.889 117.59 244.612 117.809 244.449 117.988C244.286 118.151 244.197 118.298 244.181 118.428C244.181 118.542 244.181 118.639 244.181 118.721C244.181 118.883 244.189 119.071 244.205 119.282C244.221 119.429 244.238 119.6 244.254 119.795C244.27 119.941 244.278 120.088 244.278 120.234C244.278 121.455 243.904 122.586 243.155 123.628C242.309 124.8 241.121 125.703 239.591 126.338C238.679 126.696 237.866 126.875 237.149 126.875C236.743 126.875 236.368 126.818 236.026 126.704ZM238.199 124.116C238.753 123.97 239.314 123.701 239.884 123.311C240.437 122.904 240.877 122.456 241.202 121.968C241.381 121.691 241.52 121.398 241.617 121.089C241.715 120.78 241.764 120.552 241.764 120.405C241.764 120.34 241.756 120.283 241.739 120.234H241.715C241.682 120.234 241.52 120.332 241.227 120.527C240.917 120.739 240.543 121.024 240.104 121.382C239.664 121.74 239.249 122.098 238.858 122.456C238.614 122.684 238.37 122.928 238.126 123.188C237.882 123.449 237.678 123.685 237.516 123.896C237.353 124.092 237.271 124.222 237.271 124.287C237.271 124.303 237.296 124.312 237.345 124.312C237.394 124.312 237.491 124.295 237.638 124.263C237.768 124.23 237.955 124.181 238.199 124.116ZM247.818 125.337C247.542 125.239 247.265 125.036 246.988 124.727C246.695 124.401 246.5 124.084 246.402 123.774C246.321 123.481 246.28 123.123 246.28 122.7V122.31C246.297 121.724 246.378 121.121 246.524 120.503C247.55 116.629 249.535 112.34 252.481 107.637C252.693 107.295 252.856 107.018 252.97 106.807C253.1 106.595 253.165 106.465 253.165 106.416C253.149 106.416 253.002 106.432 252.726 106.465C252.465 106.497 252.148 106.53 251.773 106.562C249.804 106.79 248.689 106.994 248.429 107.173C248.282 107.254 248.111 107.295 247.916 107.295H247.818C247.574 107.295 247.346 107.23 247.135 107.1C246.744 106.823 246.549 106.562 246.549 106.318C246.549 106.074 246.549 105.944 246.549 105.928C246.549 105.472 246.736 105.122 247.11 104.878C247.713 104.52 249.861 104.17 253.556 103.828L255.167 103.706L255.46 103.315C255.541 103.234 255.688 103.063 255.899 102.803C256.127 102.526 256.38 102.217 256.656 101.875L256.998 101.484C257.877 100.426 258.569 99.6289 259.073 99.0918C259.594 98.5547 259.977 98.2292 260.221 98.1152C260.465 98.0013 260.668 97.9443 260.831 97.9443C260.961 97.9443 261.083 97.9688 261.197 98.0176C261.767 98.2617 262.052 98.6768 262.052 99.2627C262.052 99.3929 262.035 99.5068 262.003 99.6045C261.97 99.7021 261.881 99.8324 261.734 99.9951C261.604 100.158 261.384 100.394 261.075 100.703C260.766 101.045 260.432 101.419 260.074 101.826C259.716 102.217 259.399 102.575 259.122 102.9C258.862 103.21 258.731 103.381 258.731 103.413L259.146 103.389C259.423 103.389 259.765 103.381 260.172 103.364C260.611 103.348 261.336 103.332 262.345 103.315C263.354 103.283 264.412 103.267 265.519 103.267C266.593 103.267 267.439 103.267 268.058 103.267C268.692 103.267 269.164 103.291 269.474 103.34C269.783 103.372 270.011 103.438 270.157 103.535C270.32 103.617 270.475 103.73 270.621 103.877C270.816 104.105 270.914 104.308 270.914 104.487C270.93 104.666 270.938 104.788 270.938 104.854C270.938 105.098 270.873 105.326 270.743 105.537C270.369 106.042 269.962 106.294 269.522 106.294C269.246 106.294 268.961 106.196 268.668 106.001L268.277 105.708L265.104 105.781C264.176 105.798 263.159 105.83 262.052 105.879C260.961 105.911 260.034 105.944 259.269 105.977L256.632 106.123L256.412 106.392C256.331 106.489 256.176 106.709 255.948 107.051C255.72 107.376 255.46 107.759 255.167 108.198C253.507 110.705 252.083 113.26 250.895 115.864C249.723 118.468 249.031 120.584 248.819 122.212C248.803 122.358 248.795 122.48 248.795 122.578C248.795 122.725 248.819 122.822 248.868 122.871C248.884 122.887 248.909 122.896 248.941 122.896C249.072 122.896 249.275 122.822 249.552 122.676C250.349 122.35 251.334 121.764 252.506 120.918C253.678 120.072 255.232 118.68 257.169 116.743C258.276 115.653 259.171 114.782 259.854 114.131C260.392 113.675 260.839 113.447 261.197 113.447H261.295C261.686 113.512 261.889 113.659 261.905 113.887C261.922 114.098 261.93 114.212 261.93 114.229C261.93 114.635 261.71 115.116 261.271 115.669C260.668 116.353 259.553 117.492 257.926 119.087C256.314 120.682 254.988 121.919 253.946 122.798C252.905 123.66 251.952 124.312 251.09 124.751C250.178 125.239 249.373 125.483 248.673 125.483C248.364 125.483 248.079 125.435 247.818 125.337ZM258.951 116.133C259.326 114.521 259.952 113.016 260.831 111.616C261.726 110.2 262.719 109.126 263.81 108.394C264.64 107.889 265.445 107.637 266.227 107.637C266.389 107.637 266.552 107.645 266.715 107.661C267.659 107.791 268.359 108.271 268.814 109.102C268.977 109.476 269.059 109.867 269.059 110.273C269.059 111.396 268.416 112.625 267.13 113.96C265.812 115.327 264.583 116.011 263.443 116.011C263.167 116.011 262.898 115.97 262.638 115.889C262.459 115.84 262.296 115.799 262.149 115.767C262.003 115.718 261.905 115.693 261.856 115.693C261.726 115.71 261.612 115.962 261.515 116.45C261.417 116.922 261.36 117.467 261.344 118.086V118.33C261.344 119.242 261.523 119.803 261.881 120.015C261.979 120.08 262.101 120.112 262.247 120.112C262.638 120.112 263.175 119.901 263.858 119.478C265.372 118.566 266.707 117.63 267.862 116.67C269.018 115.693 270.198 114.611 271.402 113.423C272.021 112.853 272.542 112.568 272.965 112.568H272.989C273.412 112.585 273.632 112.707 273.648 112.935L273.673 113.252C273.673 113.675 273.388 114.196 272.818 114.814C272.607 115.042 272.298 115.368 271.891 115.791C271.5 116.198 271.109 116.605 270.719 117.012C268.424 119.421 266.292 121.121 264.322 122.114C263.508 122.489 262.776 122.676 262.125 122.676C261.653 122.676 261.23 122.578 260.855 122.383C259.944 121.911 259.366 121.243 259.122 120.381C258.862 119.502 258.731 118.721 258.731 118.037C258.731 117.435 258.805 116.8 258.951 116.133ZM264.127 113.179C264.469 112.983 264.868 112.65 265.323 112.178C265.779 111.689 266.104 111.266 266.3 110.908C266.43 110.648 266.495 110.461 266.495 110.347V110.322C266.479 110.208 266.373 110.151 266.178 110.151C265.722 110.151 265.112 110.526 264.347 111.274C264.119 111.502 263.883 111.763 263.639 112.056C263.411 112.349 263.224 112.601 263.077 112.812C262.931 113.024 262.857 113.162 262.857 113.228V113.252L262.955 113.276C263.004 113.309 263.061 113.341 263.126 113.374C263.224 113.407 263.329 113.423 263.443 113.423H263.541C263.671 113.39 263.867 113.309 264.127 113.179ZM285.465 124.727C284.798 124.401 284.399 123.799 284.269 122.92C284.236 122.692 284.22 122.448 284.22 122.188C284.22 120.723 284.732 118.68 285.758 116.06C285.872 115.783 285.953 115.555 286.002 115.376C286.067 115.197 286.1 115.091 286.1 115.059V115.034C286.067 115.034 285.864 115.173 285.489 115.449C285.131 115.71 284.675 116.043 284.122 116.45C283.292 117.085 282.649 117.573 282.193 117.915C281.738 118.241 281.404 118.468 281.192 118.599C280.981 118.729 280.81 118.81 280.68 118.843C280.517 118.875 280.362 118.892 280.216 118.892C279.858 118.892 279.557 118.786 279.312 118.574C278.987 118.298 278.824 117.939 278.824 117.5C278.824 117.419 278.832 117.337 278.849 117.256C278.865 117.126 278.93 116.89 279.044 116.548C279.174 116.206 279.321 115.832 279.483 115.425C279.841 114.546 280.134 113.773 280.362 113.105C280.606 112.422 280.729 112.031 280.729 111.934V111.909C280.68 111.909 280.525 111.999 280.265 112.178C279.972 112.357 279.63 112.593 279.239 112.886C278.849 113.162 278.474 113.439 278.116 113.716C276.684 114.855 275.105 116.296 273.38 118.037C272.908 118.509 272.493 118.924 272.135 119.282C271.777 119.624 271.549 119.819 271.451 119.868C271.272 119.95 271.069 119.99 270.841 119.99H270.719C270.458 119.99 270.239 119.925 270.06 119.795C269.701 119.518 269.522 119.168 269.522 118.745C269.522 118.68 269.531 118.615 269.547 118.55C269.645 117.964 270.442 116.133 271.939 113.057C272.216 112.454 272.46 111.917 272.672 111.445C272.883 110.957 273.006 110.632 273.038 110.469C273.25 109.671 273.551 109.224 273.941 109.126C274.332 109.012 274.584 108.955 274.698 108.955C275.154 108.955 275.528 109.199 275.821 109.688C275.903 109.834 275.943 110.005 275.943 110.2C275.943 110.298 275.935 110.396 275.919 110.493C275.838 110.786 275.626 111.274 275.284 111.958C275.121 112.3 274.991 112.576 274.894 112.788C274.812 113 274.771 113.122 274.771 113.154C274.788 113.154 274.853 113.114 274.967 113.032C275.081 112.935 275.219 112.821 275.382 112.69C275.87 112.267 276.424 111.82 277.042 111.348C277.677 110.859 278.214 110.469 278.653 110.176C279.744 109.46 280.484 109.069 280.875 109.004C281.282 108.939 281.55 108.906 281.681 108.906C282.169 108.906 282.584 109.085 282.926 109.443C283.3 109.736 283.487 110.225 283.487 110.908C283.487 111.559 283.316 112.389 282.975 113.398C282.91 113.626 282.853 113.813 282.804 113.96C282.771 114.106 282.755 114.188 282.755 114.204C282.771 114.204 282.885 114.131 283.097 113.984C283.325 113.822 283.601 113.626 283.927 113.398C285.066 112.585 285.921 112.039 286.49 111.763C287.076 111.47 287.548 111.323 287.906 111.323H288.077C288.582 111.372 288.972 111.649 289.249 112.153C289.396 112.365 289.469 112.544 289.469 112.69C289.469 112.837 289.469 112.926 289.469 112.959C289.469 113.219 289.387 113.594 289.225 114.082C289.046 114.619 288.761 115.384 288.37 116.377C287.475 118.688 286.97 120.373 286.856 121.431C286.824 121.659 286.808 121.805 286.808 121.87C286.808 121.935 286.808 121.976 286.808 121.992C286.808 122.041 286.816 122.065 286.832 122.065H286.881C286.897 122.065 286.93 122.057 286.979 122.041C287.613 121.65 288.435 120.918 289.444 119.844C290.47 118.77 291.454 117.687 292.398 116.597C293.049 115.848 293.587 115.246 294.01 114.79C294.547 114.269 295.019 114.009 295.426 114.009H295.475C295.898 114.009 296.126 114.123 296.158 114.351C296.207 114.578 296.231 114.725 296.231 114.79C296.231 115.164 295.987 115.62 295.499 116.157C295.336 116.353 295.092 116.654 294.767 117.061C294.441 117.451 294.116 117.858 293.79 118.281C292.065 120.544 290.616 122.204 289.444 123.262C288.289 124.303 287.296 124.865 286.466 124.946C286.384 124.963 286.303 124.971 286.222 124.971C286.14 124.971 286.059 124.963 285.978 124.946C285.847 124.914 285.676 124.84 285.465 124.727ZM304.483 122.749C304.386 122.716 304.272 122.676 304.142 122.627C304.011 122.562 303.897 122.505 303.8 122.456C303.604 122.358 303.377 122.171 303.116 121.895C302.856 121.618 302.669 121.366 302.555 121.138C302.424 120.877 302.319 120.535 302.237 120.112C302.14 119.689 302.091 119.29 302.091 118.916C302.14 117.028 302.766 115.107 303.971 113.154C305.175 111.201 306.713 109.631 308.585 108.442C309.594 107.808 310.619 107.482 311.661 107.466C311.791 107.45 311.922 107.441 312.052 107.441C312.41 107.441 312.703 107.482 312.931 107.563C313.256 107.645 313.541 107.824 313.785 108.101C314.111 108.426 314.273 108.687 314.273 108.882C314.273 109.077 314.273 109.183 314.273 109.199C314.273 109.557 314.127 109.858 313.834 110.103C313.606 110.298 313.435 110.404 313.321 110.42C313.207 110.42 313.134 110.42 313.102 110.42C312.906 110.42 312.67 110.355 312.394 110.225C312.117 110.078 311.848 110.005 311.588 110.005H311.515C311.254 110.021 310.896 110.143 310.44 110.371C309.252 110.941 308.137 111.868 307.096 113.154C306.07 114.424 305.346 115.758 304.923 117.158C304.76 117.793 304.679 118.363 304.679 118.867V119.111C304.695 119.665 304.833 120.031 305.094 120.21C305.289 120.324 305.517 120.381 305.777 120.381C306.201 120.381 306.721 120.243 307.34 119.966C308.333 119.543 309.431 118.908 310.636 118.062C311.856 117.215 313.045 116.336 314.2 115.425C315.356 114.497 316.349 113.683 317.179 112.983C317.634 112.609 318.001 112.308 318.277 112.08C319.107 111.429 319.734 111.104 320.157 111.104C320.206 111.104 320.255 111.112 320.304 111.128C320.662 111.177 320.841 111.372 320.841 111.714C320.841 111.763 320.833 111.828 320.816 111.909C320.735 112.381 320.41 112.861 319.84 113.35C319.677 113.496 319.425 113.716 319.083 114.009C318.757 114.285 318.432 114.57 318.106 114.863C316.332 116.442 314.973 117.614 314.029 118.379C313.102 119.128 312.141 119.827 311.148 120.479C309.57 121.536 308.268 122.228 307.242 122.554C306.754 122.7 306.347 122.79 306.021 122.822C305.696 122.839 305.476 122.847 305.362 122.847C305.004 122.847 304.711 122.814 304.483 122.749ZM317.472 122.383C316.446 121.992 315.86 121.398 315.714 120.601C315.551 119.787 315.47 119.176 315.47 118.77C315.47 117.744 315.681 116.58 316.104 115.278C316.576 113.879 317.228 112.568 318.058 111.348C318.888 110.111 319.767 109.159 320.694 108.491C321.573 107.873 322.387 107.563 323.136 107.563C323.347 107.563 323.551 107.588 323.746 107.637C324.625 107.865 325.211 108.369 325.504 109.15C325.813 109.915 325.968 110.648 325.968 111.348C325.968 111.95 325.886 112.617 325.724 113.35C325.707 113.447 325.699 113.537 325.699 113.618C325.699 113.683 325.707 113.716 325.724 113.716C325.854 113.716 326.122 113.683 326.529 113.618C326.936 113.537 327.368 113.439 327.823 113.325C328.279 113.195 328.67 113.04 328.995 112.861C329.549 112.568 330.004 112.422 330.362 112.422C330.509 112.422 330.639 112.446 330.753 112.495C331.046 112.609 331.192 112.804 331.192 113.081C331.192 113.195 331.176 113.309 331.144 113.423C330.981 113.879 330.444 114.359 329.532 114.863C328.963 115.156 328.246 115.474 327.384 115.815C326.521 116.157 325.715 116.369 324.967 116.45C324.853 116.45 324.755 116.491 324.674 116.572C324.592 116.654 324.487 116.833 324.356 117.109C323.95 117.874 323.469 118.631 322.916 119.38C322.363 120.112 321.842 120.69 321.354 121.113C320.23 122.041 319.205 122.505 318.277 122.505C318.001 122.505 317.732 122.464 317.472 122.383ZM322.94 113.936C322.973 113.854 323.014 113.708 323.062 113.496C323.128 113.268 323.185 113.016 323.233 112.739C323.299 112.463 323.347 112.21 323.38 111.982C323.412 111.787 323.429 111.6 323.429 111.421C323.429 111.242 323.412 111.063 323.38 110.884C323.347 110.509 323.282 110.265 323.185 110.151C323.152 110.135 323.119 110.127 323.087 110.127C322.957 110.127 322.753 110.208 322.477 110.371C322.118 110.599 321.76 110.892 321.402 111.25L320.719 111.909L320.841 112.422C320.922 112.812 321.069 113.114 321.28 113.325C321.508 113.537 321.866 113.716 322.354 113.862C322.517 113.927 322.623 113.968 322.672 113.984C322.737 113.984 322.778 113.984 322.794 113.984H322.867C322.883 113.984 322.908 113.968 322.94 113.936ZM319.254 119.502C319.4 119.404 319.571 119.274 319.767 119.111C319.962 118.932 320.125 118.77 320.255 118.623C320.385 118.477 320.54 118.289 320.719 118.062C320.898 117.817 321.069 117.573 321.231 117.329C321.41 117.085 321.549 116.882 321.646 116.719C321.744 116.556 321.793 116.458 321.793 116.426C321.777 116.41 321.712 116.385 321.598 116.353C321.484 116.304 321.345 116.247 321.183 116.182C320.841 116.051 320.491 115.872 320.133 115.645C319.775 115.4 319.506 115.173 319.327 114.961L319.083 114.668L318.863 115.156C318.294 116.556 318.009 117.785 318.009 118.843V119.014C318.041 119.535 318.106 119.819 318.204 119.868C318.302 119.917 318.367 119.941 318.399 119.941C318.578 119.941 318.863 119.795 319.254 119.502ZM343.229 124.727C342.561 124.401 342.162 123.799 342.032 122.92C342 122.692 341.983 122.448 341.983 122.188C341.983 120.723 342.496 118.68 343.521 116.06C343.635 115.783 343.717 115.555 343.766 115.376C343.831 115.197 343.863 115.091 343.863 115.059V115.034C343.831 115.034 343.627 115.173 343.253 115.449C342.895 115.71 342.439 116.043 341.886 116.45C341.056 117.085 340.413 117.573 339.957 117.915C339.501 118.241 339.168 118.468 338.956 118.599C338.744 118.729 338.574 118.81 338.443 118.843C338.281 118.875 338.126 118.892 337.979 118.892C337.621 118.892 337.32 118.786 337.076 118.574C336.751 118.298 336.588 117.939 336.588 117.5C336.588 117.419 336.596 117.337 336.612 117.256C336.629 117.126 336.694 116.89 336.808 116.548C336.938 116.206 337.084 115.832 337.247 115.425C337.605 114.546 337.898 113.773 338.126 113.105C338.37 112.422 338.492 112.031 338.492 111.934V111.909C338.443 111.909 338.289 111.999 338.028 112.178C337.735 112.357 337.394 112.593 337.003 112.886C336.612 113.162 336.238 113.439 335.88 113.716C334.448 114.855 332.869 116.296 331.144 118.037C330.672 118.509 330.257 118.924 329.898 119.282C329.54 119.624 329.312 119.819 329.215 119.868C329.036 119.95 328.832 119.99 328.604 119.99H328.482C328.222 119.99 328.002 119.925 327.823 119.795C327.465 119.518 327.286 119.168 327.286 118.745C327.286 118.68 327.294 118.615 327.311 118.55C327.408 117.964 328.206 116.133 329.703 113.057C329.98 112.454 330.224 111.917 330.436 111.445C330.647 110.957 330.769 110.632 330.802 110.469C331.013 109.671 331.314 109.224 331.705 109.126C332.096 109.012 332.348 108.955 332.462 108.955C332.918 108.955 333.292 109.199 333.585 109.688C333.666 109.834 333.707 110.005 333.707 110.2C333.707 110.298 333.699 110.396 333.683 110.493C333.601 110.786 333.39 111.274 333.048 111.958C332.885 112.3 332.755 112.576 332.657 112.788C332.576 113 332.535 113.122 332.535 113.154C332.551 113.154 332.617 113.114 332.73 113.032C332.844 112.935 332.983 112.821 333.146 112.69C333.634 112.267 334.187 111.82 334.806 111.348C335.44 110.859 335.978 110.469 336.417 110.176C337.507 109.46 338.248 109.069 338.639 109.004C339.046 108.939 339.314 108.906 339.444 108.906C339.933 108.906 340.348 109.085 340.689 109.443C341.064 109.736 341.251 110.225 341.251 110.908C341.251 111.559 341.08 112.389 340.738 113.398C340.673 113.626 340.616 113.813 340.567 113.96C340.535 114.106 340.519 114.188 340.519 114.204C340.535 114.204 340.649 114.131 340.86 113.984C341.088 113.822 341.365 113.626 341.69 113.398C342.83 112.585 343.684 112.039 344.254 111.763C344.84 111.47 345.312 111.323 345.67 111.323H345.841C346.345 111.372 346.736 111.649 347.013 112.153C347.159 112.365 347.232 112.544 347.232 112.69C347.232 112.837 347.232 112.926 347.232 112.959C347.232 113.219 347.151 113.594 346.988 114.082C346.809 114.619 346.524 115.384 346.134 116.377C345.239 118.688 344.734 120.373 344.62 121.431C344.588 121.659 344.571 121.805 344.571 121.87C344.571 121.935 344.571 121.976 344.571 121.992C344.571 122.041 344.579 122.065 344.596 122.065H344.645C344.661 122.065 344.693 122.057 344.742 122.041C345.377 121.65 346.199 120.918 347.208 119.844C348.233 118.77 349.218 117.687 350.162 116.597C350.813 115.848 351.35 115.246 351.773 114.79C352.311 114.269 352.783 114.009 353.189 114.009H353.238C353.661 114.009 353.889 114.123 353.922 114.351C353.971 114.578 353.995 114.725 353.995 114.79C353.995 115.164 353.751 115.62 353.263 116.157C353.1 116.353 352.856 116.654 352.53 117.061C352.205 117.451 351.879 117.858 351.554 118.281C349.828 120.544 348.38 122.204 347.208 123.262C346.052 124.303 345.06 124.865 344.229 124.946C344.148 124.963 344.067 124.971 343.985 124.971C343.904 124.971 343.823 124.963 343.741 124.946C343.611 124.914 343.44 124.84 343.229 124.727ZM366.031 124.727C365.364 124.401 364.965 123.799 364.835 122.92C364.802 122.692 364.786 122.448 364.786 122.188C364.786 120.723 365.299 118.68 366.324 116.06C366.438 115.783 366.52 115.555 366.568 115.376C366.633 115.197 366.666 115.091 366.666 115.059V115.034C366.633 115.034 366.43 115.173 366.056 115.449C365.698 115.71 365.242 116.043 364.688 116.45C363.858 117.085 363.215 117.573 362.76 117.915C362.304 118.241 361.97 118.468 361.759 118.599C361.547 118.729 361.376 118.81 361.246 118.843C361.083 118.875 360.929 118.892 360.782 118.892C360.424 118.892 360.123 118.786 359.879 118.574C359.553 118.298 359.391 117.939 359.391 117.5C359.391 117.419 359.399 117.337 359.415 117.256C359.431 117.126 359.496 116.89 359.61 116.548C359.741 116.206 359.887 115.832 360.05 115.425C360.408 114.546 360.701 113.773 360.929 113.105C361.173 112.422 361.295 112.031 361.295 111.934V111.909C361.246 111.909 361.091 111.999 360.831 112.178C360.538 112.357 360.196 112.593 359.806 112.886C359.415 113.162 359.041 113.439 358.683 113.716C357.25 114.855 355.672 116.296 353.946 118.037C353.474 118.509 353.059 118.924 352.701 119.282C352.343 119.624 352.115 119.819 352.018 119.868C351.839 119.95 351.635 119.99 351.407 119.99H351.285C351.025 119.99 350.805 119.925 350.626 119.795C350.268 119.518 350.089 119.168 350.089 118.745C350.089 118.68 350.097 118.615 350.113 118.55C350.211 117.964 351.008 116.133 352.506 113.057C352.783 112.454 353.027 111.917 353.238 111.445C353.45 110.957 353.572 110.632 353.604 110.469C353.816 109.671 354.117 109.224 354.508 109.126C354.898 109.012 355.151 108.955 355.265 108.955C355.72 108.955 356.095 109.199 356.388 109.688C356.469 109.834 356.51 110.005 356.51 110.2C356.51 110.298 356.502 110.396 356.485 110.493C356.404 110.786 356.192 111.274 355.851 111.958C355.688 112.3 355.558 112.576 355.46 112.788C355.379 113 355.338 113.122 355.338 113.154C355.354 113.154 355.419 113.114 355.533 113.032C355.647 112.935 355.785 112.821 355.948 112.69C356.437 112.267 356.99 111.82 357.608 111.348C358.243 110.859 358.78 110.469 359.22 110.176C360.31 109.46 361.051 109.069 361.441 109.004C361.848 108.939 362.117 108.906 362.247 108.906C362.735 108.906 363.15 109.085 363.492 109.443C363.867 109.736 364.054 110.225 364.054 110.908C364.054 111.559 363.883 112.389 363.541 113.398C363.476 113.626 363.419 113.813 363.37 113.96C363.338 114.106 363.321 114.188 363.321 114.204C363.338 114.204 363.451 114.131 363.663 113.984C363.891 113.822 364.168 113.626 364.493 113.398C365.632 112.585 366.487 112.039 367.057 111.763C367.643 111.47 368.115 111.323 368.473 111.323H368.644C369.148 111.372 369.539 111.649 369.815 112.153C369.962 112.365 370.035 112.544 370.035 112.69C370.035 112.837 370.035 112.926 370.035 112.959C370.035 113.219 369.954 113.594 369.791 114.082C369.612 114.619 369.327 115.384 368.937 116.377C368.041 118.688 367.537 120.373 367.423 121.431C367.39 121.659 367.374 121.805 367.374 121.87C367.374 121.935 367.374 121.976 367.374 121.992C367.374 122.041 367.382 122.065 367.398 122.065H367.447C367.464 122.065 367.496 122.057 367.545 122.041C368.18 121.65 369.002 120.918 370.011 119.844C371.036 118.77 372.021 117.687 372.965 116.597C373.616 115.848 374.153 115.246 374.576 114.79C375.113 114.269 375.585 114.009 375.992 114.009H376.041C376.464 114.009 376.692 114.123 376.725 114.351C376.773 114.578 376.798 114.725 376.798 114.79C376.798 115.164 376.554 115.62 376.065 116.157C375.903 116.353 375.659 116.654 375.333 117.061C375.007 117.451 374.682 117.858 374.356 118.281C372.631 120.544 371.183 122.204 370.011 123.262C368.855 124.303 367.862 124.865 367.032 124.946C366.951 124.963 366.869 124.971 366.788 124.971C366.707 124.971 366.625 124.963 366.544 124.946C366.414 124.914 366.243 124.84 366.031 124.727ZM383.39 124.409C382.56 124.051 382.145 123.302 382.145 122.163V122.041C382.161 120.723 382.657 118.908 383.634 116.597C383.78 116.287 383.902 116.019 384 115.791L384.122 115.449C384.106 115.449 383.91 115.588 383.536 115.864C383.146 116.141 382.665 116.491 382.096 116.914C380.191 118.379 378.808 119.339 377.945 119.795C377.099 120.234 376.424 120.454 375.919 120.454C375.772 120.454 375.634 120.438 375.504 120.405C374.413 120.129 373.868 119.29 373.868 117.891C373.868 117.028 374.08 115.946 374.503 114.644C374.975 113.26 375.577 111.974 376.31 110.786C377.058 109.598 377.726 108.849 378.312 108.54C378.572 108.426 378.816 108.369 379.044 108.369C379.256 108.369 379.459 108.418 379.654 108.516C380.061 108.695 380.346 109.036 380.509 109.541C380.541 109.655 380.558 109.761 380.558 109.858C380.558 110.103 380.493 110.322 380.362 110.518C380.167 110.811 379.89 110.99 379.532 111.055C379.435 111.071 379.345 111.104 379.264 111.152C379.182 111.185 379.101 111.258 379.02 111.372C378.938 111.486 378.824 111.649 378.678 111.86C378.32 112.381 378.059 112.796 377.896 113.105C377.734 113.415 377.547 113.83 377.335 114.351C376.863 115.49 376.562 116.475 376.432 117.305L376.358 117.769L376.871 117.5C377.311 117.256 378.051 116.751 379.093 115.986C380.151 115.221 381.339 114.318 382.657 113.276C383.683 112.479 384.505 111.844 385.123 111.372C385.742 110.9 386.222 110.55 386.563 110.322C386.905 110.094 387.158 109.956 387.32 109.907C387.499 109.842 387.654 109.81 387.784 109.81H387.882C388.614 109.826 389.046 110.216 389.176 110.981C389.192 111.03 389.2 111.079 389.2 111.128C389.2 111.323 389.135 111.559 389.005 111.836C388.858 112.21 388.549 112.78 388.077 113.545C387.621 114.326 387.166 115.173 386.71 116.084C386.271 116.979 385.904 117.785 385.611 118.501C385.449 118.924 385.294 119.38 385.147 119.868C385.001 120.34 384.887 120.731 384.806 121.04C384.741 121.333 384.708 121.528 384.708 121.626C384.708 121.675 384.716 121.707 384.732 121.724H384.806C384.985 121.724 385.424 121.504 386.124 121.064C386.922 120.544 387.76 119.819 388.639 118.892C389.371 118.094 390.095 117.288 390.812 116.475C391.43 115.742 392.065 115.026 392.716 114.326C393.285 113.724 393.774 113.423 394.181 113.423H394.229C394.636 113.455 394.848 113.594 394.864 113.838C394.881 114.066 394.889 114.196 394.889 114.229C394.889 114.652 394.677 115.14 394.254 115.693C394.075 115.889 393.888 116.108 393.692 116.353C392.911 117.313 391.967 118.411 390.86 119.648C389.754 120.885 388.622 121.984 387.467 122.944C386.311 123.905 385.278 124.442 384.366 124.556H383.829C383.683 124.523 383.536 124.474 383.39 124.409ZM400.382 124.214C399.34 123.888 398.819 123.034 398.819 121.65C398.819 121.423 398.836 121.17 398.868 120.894C398.966 119.657 399.592 117.573 400.748 114.644C400.943 114.172 401.09 113.781 401.188 113.472C401.301 113.162 401.358 112.983 401.358 112.935V112.91H401.334C401.285 112.91 401.147 112.975 400.919 113.105C400.642 113.252 400.317 113.447 399.942 113.691C399.584 113.919 399.226 114.155 398.868 114.399C397.664 115.246 396.297 116.41 394.767 117.891L393.912 118.745C393.391 119.266 393.009 119.616 392.765 119.795C392.521 119.958 392.301 120.039 392.105 120.039C391.992 120.039 391.886 120.023 391.788 119.99C391.267 119.844 391.007 119.453 391.007 118.818V118.696C391.072 118.241 391.479 117.166 392.228 115.474C392.96 113.781 393.749 112.104 394.596 110.444C395.442 108.768 396.044 107.734 396.402 107.344C396.565 107.214 396.695 107.124 396.793 107.075C396.907 107.026 397.045 107.002 397.208 107.002C397.582 107.002 397.9 107.132 398.16 107.393C398.421 107.653 398.551 107.962 398.551 108.32C398.551 108.385 398.51 108.524 398.429 108.735C398.347 108.947 398.242 109.175 398.111 109.419C397.981 109.679 397.794 110.029 397.55 110.469C397.322 110.908 397.094 111.348 396.866 111.787L396.085 113.276L396.817 112.739C398.461 111.535 399.885 110.688 401.09 110.2C401.594 110.005 402.05 109.907 402.457 109.907C402.913 109.907 403.312 110.029 403.653 110.273C404.076 110.566 404.288 111.038 404.288 111.689C404.288 111.999 404.239 112.34 404.142 112.715C403.995 113.285 403.702 114.131 403.263 115.254C402.026 118.428 401.407 120.413 401.407 121.211V121.333L401.432 121.602L402.066 121.138C403.141 120.34 404.158 119.461 405.118 118.501C406.095 117.524 407.047 116.532 407.975 115.522C408.528 114.937 409.073 114.359 409.61 113.789C410.05 113.366 410.432 113.154 410.758 113.154C410.823 113.154 410.88 113.162 410.929 113.179C411.303 113.244 411.515 113.398 411.563 113.643C411.612 113.87 411.637 114.025 411.637 114.106C411.637 114.416 411.507 114.741 411.246 115.083C411.067 115.295 410.44 115.994 409.366 117.183C408.797 117.817 408.219 118.46 407.633 119.111C407.063 119.746 406.616 120.251 406.29 120.625C404.076 123.066 402.278 124.287 400.895 124.287C400.715 124.287 400.545 124.263 400.382 124.214ZM415.592 104.927C415.201 104.683 414.998 104.447 414.981 104.219C414.965 103.991 414.957 103.853 414.957 103.804C414.957 103.478 415.063 103.177 415.274 102.9C415.535 102.575 415.901 102.412 416.373 102.412C416.943 102.412 417.301 102.575 417.447 102.9C417.61 103.226 417.691 103.486 417.691 103.682C417.691 103.958 417.586 104.243 417.374 104.536C417.032 104.91 416.666 105.098 416.275 105.098C416.048 105.098 415.82 105.041 415.592 104.927ZM407.853 119.844C407.787 119.518 407.755 119.168 407.755 118.794C407.755 117.72 408.056 116.426 408.658 114.912C409.244 113.561 409.96 112.259 410.807 111.006C411.669 109.753 412.361 108.979 412.882 108.687C413.11 108.589 413.329 108.54 413.541 108.54C413.769 108.54 413.972 108.597 414.151 108.711C414.526 108.955 414.713 109.329 414.713 109.834C414.713 109.98 414.697 110.103 414.664 110.2C414.648 110.282 414.591 110.379 414.493 110.493C414.412 110.607 414.273 110.77 414.078 110.981C413.134 112.039 412.296 113.285 411.563 114.717C410.847 116.149 410.44 117.37 410.343 118.379C410.326 118.558 410.318 118.704 410.318 118.818C410.318 119.014 410.343 119.128 410.392 119.16H410.44C410.571 119.16 410.831 119.054 411.222 118.843C414.607 117.069 417.325 115.075 419.376 112.861C419.799 112.454 420.157 112.251 420.45 112.251C420.564 112.251 420.67 112.284 420.768 112.349C421.028 112.511 421.158 112.764 421.158 113.105C421.158 113.219 421.142 113.35 421.109 113.496C420.979 113.838 420.621 114.326 420.035 114.961C419.449 115.596 418.823 116.214 418.155 116.816C417.504 117.419 417.032 117.842 416.739 118.086C415.16 119.372 413.744 120.365 412.491 121.064C411.726 121.488 410.953 121.699 410.172 121.699C410.042 121.699 409.911 121.691 409.781 121.675C408.87 121.577 408.227 120.967 407.853 119.844ZM417.594 125.337C417.317 125.239 417.04 125.036 416.764 124.727C416.471 124.401 416.275 124.084 416.178 123.774C416.096 123.481 416.056 123.123 416.056 122.7V122.31C416.072 121.724 416.153 121.121 416.3 120.503C417.325 116.629 419.311 112.34 422.257 107.637C422.468 107.295 422.631 107.018 422.745 106.807C422.875 106.595 422.94 106.465 422.94 106.416C422.924 106.416 422.778 106.432 422.501 106.465C422.241 106.497 421.923 106.53 421.549 106.562C419.579 106.79 418.465 106.994 418.204 107.173C418.058 107.254 417.887 107.295 417.691 107.295H417.594C417.35 107.295 417.122 107.23 416.91 107.1C416.52 106.823 416.324 106.562 416.324 106.318C416.324 106.074 416.324 105.944 416.324 105.928C416.324 105.472 416.511 105.122 416.886 104.878C417.488 104.52 419.636 104.17 423.331 103.828L424.942 103.706L425.235 103.315C425.317 103.234 425.463 103.063 425.675 102.803C425.903 102.526 426.155 102.217 426.432 101.875L426.773 101.484C427.652 100.426 428.344 99.6289 428.849 99.0918C429.369 98.5547 429.752 98.2292 429.996 98.1152C430.24 98.0013 430.444 97.9443 430.606 97.9443C430.737 97.9443 430.859 97.9688 430.973 98.0176C431.542 98.2617 431.827 98.6768 431.827 99.2627C431.827 99.3929 431.811 99.5068 431.778 99.6045C431.746 99.7021 431.656 99.8324 431.51 99.9951C431.38 100.158 431.16 100.394 430.851 100.703C430.541 101.045 430.208 101.419 429.85 101.826C429.492 102.217 429.174 102.575 428.897 102.9C428.637 103.21 428.507 103.381 428.507 103.413L428.922 103.389C429.199 103.389 429.54 103.381 429.947 103.364C430.387 103.348 431.111 103.332 432.12 103.315C433.129 103.283 434.187 103.267 435.294 103.267C436.368 103.267 437.215 103.267 437.833 103.267C438.468 103.267 438.94 103.291 439.249 103.34C439.558 103.372 439.786 103.438 439.933 103.535C440.095 103.617 440.25 103.73 440.396 103.877C440.592 104.105 440.689 104.308 440.689 104.487C440.706 104.666 440.714 104.788 440.714 104.854C440.714 105.098 440.649 105.326 440.519 105.537C440.144 106.042 439.737 106.294 439.298 106.294C439.021 106.294 438.736 106.196 438.443 106.001L438.053 105.708L434.879 105.781C433.951 105.798 432.934 105.83 431.827 105.879C430.737 105.911 429.809 105.944 429.044 105.977L426.407 106.123L426.188 106.392C426.106 106.489 425.951 106.709 425.724 107.051C425.496 107.376 425.235 107.759 424.942 108.198C423.282 110.705 421.858 113.26 420.67 115.864C419.498 118.468 418.806 120.584 418.595 122.212C418.578 122.358 418.57 122.48 418.57 122.578C418.57 122.725 418.595 122.822 418.644 122.871C418.66 122.887 418.684 122.896 418.717 122.896C418.847 122.896 419.05 122.822 419.327 122.676C420.125 122.35 421.109 121.764 422.281 120.918C423.453 120.072 425.007 118.68 426.944 116.743C428.051 115.653 428.946 114.782 429.63 114.131C430.167 113.675 430.615 113.447 430.973 113.447H431.07C431.461 113.512 431.664 113.659 431.681 113.887C431.697 114.098 431.705 114.212 431.705 114.229C431.705 114.635 431.485 115.116 431.046 115.669C430.444 116.353 429.329 117.492 427.701 119.087C426.09 120.682 424.763 121.919 423.722 122.798C422.68 123.66 421.728 124.312 420.865 124.751C419.954 125.239 419.148 125.483 418.448 125.483C418.139 125.483 417.854 125.435 417.594 125.337ZM424.796 135.566C424.015 135.16 423.624 134.557 423.624 133.76C423.624 133.304 423.754 132.783 424.015 132.197C424.633 130.863 426.155 129.129 428.58 126.997C430.989 124.849 434.48 122.139 439.054 118.867L440.494 117.842L440.836 116.792C440.934 116.483 441.031 116.174 441.129 115.864C441.227 115.555 441.292 115.311 441.324 115.132C441.373 114.904 441.406 114.676 441.422 114.448C441.454 114.22 441.471 114.017 441.471 113.838C441.471 113.675 441.446 113.594 441.397 113.594C441.316 113.594 440.942 113.83 440.274 114.302C439.607 114.757 438.769 115.36 437.76 116.108C436.002 117.427 434.643 118.371 433.683 118.94C432.739 119.51 431.965 119.852 431.363 119.966C431.184 119.998 431.005 120.015 430.826 120.015C430.029 120.015 429.435 119.657 429.044 118.94C428.897 118.68 428.824 118.428 428.824 118.184C428.824 117.939 428.824 117.793 428.824 117.744C428.824 117.354 428.881 116.963 428.995 116.572C429.5 114.993 430.606 112.878 432.315 110.225C432.853 109.411 433.268 108.841 433.561 108.516C433.87 108.19 434.155 107.995 434.415 107.93C434.545 107.897 434.659 107.881 434.757 107.881H434.83C434.944 107.881 435.082 107.93 435.245 108.027C435.506 108.141 435.685 108.296 435.782 108.491C435.896 108.67 435.969 108.971 436.002 109.395C436.018 109.59 436.026 109.753 436.026 109.883V110.054C436.01 110.216 435.969 110.371 435.904 110.518C435.807 110.729 435.66 110.908 435.465 111.055C435.27 111.185 435.066 111.25 434.854 111.25C434.757 111.25 434.521 111.543 434.146 112.129C433.772 112.699 433.373 113.366 432.95 114.131C432.527 114.88 432.185 115.539 431.925 116.108C431.664 116.662 431.534 117.004 431.534 117.134V117.183H431.559C431.868 117.183 433.463 116.117 436.344 113.984C436.93 113.545 437.475 113.146 437.979 112.788C438.484 112.414 438.826 112.161 439.005 112.031C440.079 111.315 441.007 110.957 441.788 110.957C442.341 110.957 442.813 111.128 443.204 111.47C443.774 111.974 444.059 112.756 444.059 113.813C444.059 114.041 444.042 114.277 444.01 114.521C444.01 114.587 444.002 114.644 443.985 114.692C443.969 114.855 443.953 115.018 443.937 115.181C443.92 115.343 443.904 115.465 443.888 115.547C443.888 115.628 443.888 115.685 443.888 115.718V115.791C443.904 115.775 444.107 115.636 444.498 115.376C444.889 115.099 445.377 114.757 445.963 114.351C446.777 113.781 447.436 113.333 447.94 113.008C448.478 112.699 448.941 112.544 449.332 112.544C449.43 112.544 449.527 112.552 449.625 112.568C450.064 112.682 450.284 112.935 450.284 113.325V113.398C450.252 113.822 449.837 114.326 449.039 114.912C448.746 115.124 448.25 115.474 447.55 115.962C446.85 116.45 446.109 116.971 445.328 117.524L442.569 119.478L442.203 120.332C441.78 121.309 441.235 122.383 440.567 123.555C439.916 124.71 439.265 125.76 438.614 126.704C436.922 129.032 435.156 130.952 433.316 132.466C431.607 133.8 430.143 134.688 428.922 135.127C427.701 135.583 426.741 135.811 426.041 135.811C425.569 135.811 425.154 135.729 424.796 135.566ZM427.628 132.881C430.655 131.693 433.561 129.227 436.344 125.483C436.572 125.158 436.816 124.8 437.076 124.409C437.353 124.002 437.581 123.644 437.76 123.335C437.939 123.026 438.028 122.855 438.028 122.822C437.963 122.839 437.524 123.148 436.71 123.75C435.896 124.352 434.96 125.068 433.902 125.898C432.861 126.712 431.941 127.445 431.144 128.096C430.118 128.975 429.15 129.894 428.238 130.854C427.311 131.815 426.7 132.555 426.407 133.076C426.375 133.125 426.358 133.158 426.358 133.174C426.358 133.19 426.367 133.198 426.383 133.198H426.627C426.725 133.166 426.871 133.117 427.066 133.052C427.245 133.003 427.433 132.946 427.628 132.881Z" fill="#787841"/>
<g clip-path="url(#clip1_96_21)">
<path d="M194.074 44.3357C195.086 40.4367 196.002 36.5027 197.102 32.63C197.877 29.8963 198.907 27.2327 199.726 24.5078C200.756 21.0557 201.653 17.5685 202.675 14.1164C203.484 11.3915 204.374 8.69285 205.28 5.99423C206.407 2.656 206.425 2.656 210.078 2.63847C212.675 2.62971 215.28 2.69981 217.877 2.59467C219.858 2.51581 220.835 3.40951 221.214 5.267C222.437 11.3214 223.599 17.3933 224.99 23.4126C226.407 29.5634 229.937 43.8538 230.395 43.7399C230.738 43.9151 232.12 37.4139 233.027 34.3911C234.568 29.2304 236.258 24.1135 237.798 18.9529C239.154 14.4143 240.175 9.77931 242.041 5.40719C242.525 4.26816 244.083 3.00647 245.281 2.85752C248.256 2.48952 251.319 2.51581 254.312 2.78742C257.006 3.02399 257.578 4.0754 256.742 6.65136C251.011 24.2187 245.395 41.8123 239.735 59.3971C239.083 61.4299 238.203 63.4451 237.059 65.2325C236.487 66.1262 235.122 66.9147 234.048 67.0111C231.196 67.2652 228.3 67.1338 225.421 67.125C223.731 67.125 222.895 65.9597 222.472 64.5753C220.474 58.0741 218.3 51.6255 216.627 45.0366C214.664 37.3263 212.992 29.283 212.772 30.3694C212.34 29.9752 206.161 50.9771 203.071 60.1244C200.359 68.1501 199.822 67.1075 192.859 67.2652C187.023 67.3966 186.706 67.3178 185.025 61.8767C182.674 54.2628 180.905 46.4648 178.775 38.7807C176.486 30.5534 174.056 22.3612 171.724 14.1514C170.905 11.2863 170.192 8.38619 169.435 5.50357C169.047 4.01407 169.496 2.89257 171.143 2.83123C174.928 2.68228 178.731 2.56838 182.516 2.74362C183.282 2.77866 184.426 4.00531 184.646 4.87272C185.835 9.50769 186.759 14.2128 187.842 18.874C188.88 23.3337 190.034 27.7584 191.072 32.2182C192.005 36.2398 192.842 40.2878 193.722 44.3269C193.722 44.6511 194.057 44.6599 194.065 44.3269L194.074 44.3357Z" fill="#95532D"/>
<path d="M126.327 68.1063C123.158 68.0888 119.998 68.0012 116.846 67.9223C112.991 67.8259 111.001 65.837 111.054 62.0432C111.353 42.9864 111.661 23.9383 111.89 4.88147C111.908 3.75121 112.313 3.15541 113.36 3.05903C122.735 2.14781 132.322 1.0964 141.679 2.75237C145.922 3.49712 149.584 4.67119 152.797 7.60638C155.606 10.1736 157.525 13.5381 158.669 17.1392C159.003 18.1906 159.276 19.2683 159.496 20.3547C161.451 30.1153 162.366 40.9449 159.831 50.6879C158.07 57.452 152.12 65.3989 144.98 66.757C138.836 67.9223 132.577 68.1589 126.327 68.1238V68.1063ZM126.213 18.0942C126.213 21.4762 126.248 24.5867 126.213 27.7059C126.116 35.3724 125.984 43.0389 125.852 50.6967C125.816 53.0361 126.38 53.7458 128.686 53.8159C131.001 53.886 133.317 53.8597 135.632 53.8071C139.672 53.7107 142.023 52.0373 143.123 48.1032C143.968 45.1067 144.699 42.0401 144.998 38.9559C145.535 33.4273 144.892 27.9687 142.639 22.808C141.591 20.4073 139.945 18.3483 137.163 18.1555C133.484 17.9102 129.769 18.0942 126.213 18.0942Z" fill="#95532D"/>
<path d="M411.101 5.06543C411.101 3.7424 411.524 3.09403 412.791 2.98889C415.925 2.71728 419.059 2.33176 422.201 2.24414C426.902 2.11272 431.612 2.14776 436.313 2.19157C448.434 2.31424 456.339 8.67527 458.672 20.4336C460.538 29.8262 461.489 40.2001 459.174 49.6102C457.378 56.8912 452.008 65.2237 444.077 66.6693C440.027 67.4053 435.89 67.7821 431.77 67.9398C426.717 68.1413 421.656 68.0011 416.603 67.9573C411.955 67.9135 410.238 66.1875 410.229 61.5963C410.212 52.3176 411.163 14.6333 411.101 5.07419V5.06543ZM425.503 18.0416C425.274 18.0416 425.08 18.2344 425.08 18.4622C425.08 19.4172 425.071 20.1444 425.08 20.8629C425.177 27.0837 425.177 33.3133 425.159 39.543C425.159 42.592 424.605 52.3877 425.916 53.4216C427.43 54.6132 431.867 54.4993 433.672 54.2802C435.573 54.0524 437.721 53.5442 439.27 52.449C442.483 50.171 443.003 45.5185 443.584 41.9524C444.57 35.9419 445.459 18.4359 435.67 18.0766C432.369 17.954 429.068 18.0416 425.494 18.0504L425.503 18.0416Z" fill="#95532D"/>
<path d="M293.978 1.46439C299.084 1.48191 304.216 2.72608 308.82 5.22318C317.297 9.8231 323.116 18.2256 324.877 27.627C328.107 44.8789 318.213 65.9947 299.436 68.6583C289.533 70.069 278.785 67.0812 272.015 59.7476C260.598 47.3848 260.334 23.877 271.461 11.26C277.218 4.73252 285.563 1.42934 293.97 1.46439H293.978ZM291.742 54.9637C296.628 55.3404 302.244 53.6582 305.722 50.4864C315.95 41.1552 311.963 20.7052 298.204 17.0866C292.86 15.6847 287.244 17.0165 283.503 21.117C274.92 30.5096 274.436 51.126 289.445 54.6132C290.184 54.7884 290.959 54.9023 291.751 54.9637H291.742Z" fill="#95532D"/>
<path d="M398.742 34.1282C398.777 35.1884 398.777 36.2485 398.724 37.3C398.24 47.7965 392.835 59.4059 383.434 64.8907C375.669 69.4293 364.736 70.288 356.4 67.0111C336.021 59.0116 331.945 31.377 342.738 14.3792C349.023 4.46965 358.592 0.903619 370.132 1.53447C387.448 2.48074 398.143 17.989 398.742 34.1194V34.1282ZM384.772 35.4512C384.648 30.5622 383.055 25.7344 380.018 22.3612C373.601 15.2466 365.194 14.2565 358.222 19.9166C348.944 27.4517 349.446 40.9624 353.9 48.1032C359.234 56.6547 372.861 56.9438 379.648 50.0045C383.222 46.3509 384.904 40.866 384.772 35.4425V35.4512Z" fill="#95532D"/>
<path d="M37.409 43.7136C37.5322 43.6259 40.6748 48.55 40.9477 49.1371C41.7224 50.8106 42.2506 52.5892 43.3333 54.105C44.3633 55.5332 45.9302 56.3655 47.6732 56.6196C48.888 56.7949 49.1696 57.3206 49.1344 58.3983C49.064 60.4923 49.0288 62.5864 49.0904 64.6804C49.1432 66.4941 48.2629 67.4579 46.5464 67.6156C40.1027 68.1939 31.4494 66.5204 29.5656 57.119C27.9722 49.1809 27.5233 49.2335 19.8472 49.5051C17.8841 49.5752 16.7837 50.5039 16.6077 52.449C16.4404 54.2627 16.4228 56.0764 16.4404 57.8988C16.458 59.5548 16.7309 61.3948 16.4404 63.0245C16.0267 65.4427 14.2573 66.5204 11.9069 66.6694C11.7661 66.6694 11.6252 66.6869 11.4844 66.6869C8.91395 66.7482 6.32589 66.3715 3.75545 66.1174C1.66916 65.9071 0.850486 64.5227 1.03535 62.6127C1.1938 60.9304 1.59873 59.2657 1.77479 57.5834C2.17092 53.7808 2.1181 49.9169 2.23254 46.0968C2.46142 38.4127 2.54064 30.6498 2.46142 22.9394C2.3998 16.8675 2.28536 10.7869 2.22374 4.71497C2.19733 2.40187 2.89276 1.78854 5.76251 1.83235C11.2291 1.91121 16.7045 2.04264 22.1711 2.21787C24.6888 2.29673 27.2064 2.41939 29.7064 2.68224C34.2311 3.16414 37.8667 5.31953 40.2435 9.15718C45.0323 16.8938 46.0446 25.3051 44.0199 34.0581C43.0604 38.1936 40.5428 41.453 37.4266 43.7398L37.409 43.7136ZM16.2644 31.6486C16.1675 35.5038 16.4404 36.1434 19.2398 36.2047C20.0056 36.2047 21.3172 36.1259 22.5144 36.0733C25.6395 35.9419 28.8173 35.3023 30.5515 32.4897C32.6642 29.0551 32.8491 24.1223 31.2469 20.4598C29.8121 17.183 25.2081 15.9826 20.9915 15.6672C19.3542 15.5445 16.1852 15.7285 16.2116 18.0679C16.238 20.3722 16.3348 29.4582 16.282 31.6574L16.2644 31.6486Z" fill="#95532D"/>
<path d="M510.204 21.3535C509.887 21.888 509.165 22.0194 508.681 21.6252C506.841 20.1269 505.424 18.9178 503.919 17.8401C500.917 15.6847 497.563 14.7472 493.822 15.1415C489.87 15.5533 487.396 19.8553 489.553 23.1497C490.688 24.8845 492.449 26.4091 494.245 27.4868C498.012 29.7385 502.07 31.5259 505.882 33.7164C510.724 36.4939 514.782 40.0336 516.313 45.72C517.704 50.8807 517.018 55.4981 514.201 60.2645C510.812 65.9947 505.82 68.2289 499.694 68.7284C490.539 69.4731 481.964 67.7996 474.632 61.8504C473.778 61.1494 472.88 60.3784 472.352 59.4497C471.973 58.7838 471.859 57.6185 472.202 56.9876C473.32 54.9111 474.579 52.8871 475.996 50.9946C478.258 47.9893 480.142 47.8841 483.003 50.39C486.938 53.8246 491.384 55.9099 496.762 55.4893C499.324 55.2878 501.269 53.9385 501.815 52.0635C502.51 49.6628 501.877 47.7001 499.394 46.1581C495.653 43.8362 491.762 41.7422 487.942 39.5517C483.98 37.2824 480.081 34.9781 477.246 31.2456C470.89 22.8781 473.408 9.75298 482.59 4.64487C489.28 0.929886 496.516 0.141328 503.963 1.90244C508.699 3.02395 512.123 6.09932 514.843 9.9545C515.301 10.6116 515.944 11.2512 515.618 11.8646C514.06 14.826 512 18.2957 510.204 21.3623V21.3535Z" fill="#95532D"/>
<path d="M73.404 43.0827C72.5765 44.6335 72.4004 52.8696 75.7631 52.8345C80.3935 52.7907 85.015 52.5542 89.6365 52.3877C91.0626 52.3351 94.6982 51.7306 95.3584 53.5092C95.5785 54.0962 95.5081 54.7359 95.4464 55.3579C95.1295 58.2581 94.9007 61.1407 94.6542 64.0321C94.5221 65.5654 93.8443 66.3189 92.0925 66.3364C82.0748 66.4065 72.1628 66.9322 62.145 65.9684C60.2524 65.7844 59.1433 65.1185 59.1521 63.1209C59.1521 51.6079 58.9496 40.1037 58.8704 28.5908C58.8175 21.6865 58.8264 14.7822 58.8264 7.87797C58.8264 3.60223 59.6802 2.36682 63.9408 2.27044C73.1135 2.06016 82.3037 2.10397 91.4851 2.23539C93.008 2.26168 94.5133 2.28796 95.2352 3.79499C96.1331 5.66124 96.1507 7.8254 95.9834 9.84936C95.8602 11.225 96.001 14.6683 94.3549 15.1415C91.3091 16.0264 87.7967 15.562 84.6453 15.5883C81.4938 15.6146 78.492 15.6409 75.411 15.711C72.8934 15.7723 72.3124 16.6748 72.3124 19.1456C72.3036 21.2396 72.2508 23.3337 72.33 25.4278C72.4268 27.8548 73.2807 28.6083 75.7191 28.6083C80.2174 28.6083 84.7069 28.582 89.2052 28.617C92.1542 28.6433 92.6295 28.95 92.9112 31.8151C93.1489 34.2158 93.2721 36.6866 92.9464 39.0611C92.5943 41.6458 91.3531 42.3905 88.721 42.4519C83.7122 42.5658 78.6945 42.6709 73.6857 42.8374C73.5888 42.8374 73.5008 42.925 73.4128 43.0915L73.404 43.0827Z" fill="#95532D"/>
</g>
</g>
<defs>
<clipPath id="clip0_96_21">
<rect width="518" height="137" fill="white"/>
</clipPath>
<clipPath id="clip1_96_21">
<rect width="516" height="68" fill="white" transform="translate(1 1)"/>
</clipPath>
</defs>
</svg>
